# xmcd
#
# Track frame offsets: 
#        150
#        11920
#        20980
#        30780
#        40902
#        50870
#        62620
#        73585
#        84632
#        94900
#        103715
#        114315
#        123467
#        134027
#        148017
#        156930
#        167172
#        176190
#        187480
#        198265
#
# Disc length: 2798 seconds
#
# Revision: 2
# Processed by: cddbd v1.5.2PL0 Copyright (c) Steve Scherf et al.
# Submitted via: ExactAudioCopy v0.99pb4
#
DISCID=300aec14
DTITLE=The Browns - I Heard The Bluebirds Sing and A harvest  Of Country
DTITLE=Songs
DYEAR=2004
DGENRE=Country
TTITLE0=I Hear The Bluebirds Sing
TTITLE1=Buttons And Bows
TTITLE2=This Time I Would Know
TTITLE3=Foolish Pride
TTITLE4=Send Me The Pillow You Dream On
TTITLE5=I'll Hold You In My Heart (Till I Can Hold You In My Arms)
TTITLE6=Alpha And Omega
TTITLE7=Remember Me
TTITLE8=Oh, No!
TTITLE9=My Baby's Gone
TTITLE10=Don't Let The Stars Get in Your Eyes
TTITLE11=The Rhumba Boogie
TTITLE12=Mansion On The Hill
TTITLE13=Four Walls
TTITLE14=Sugarfoot Rag
TTITLE15=Ground Hog
TTITLE16=Columbus Stockade Blues
TTITLE17=Down In The Valley
TTITLE18=Poor Wildwood Flower
TTITLE19=The Great Speckled Bird
EXTD=
EXTT0=
EXTT1=
EXTT2=
EXTT3=
EXTT4=
EXTT5=
EXTT6=
EXTT7=
EXTT8=
EXTT9=
EXTT10=
EXTT11=
EXTT12=
EXTT13=
EXTT14=
EXTT15=
EXTT16=
EXTT17=
EXTT18=
EXTT19=
PLAYORDER=
